<svg xmlns="http://www.w3.org/2000/svg" viewBox="0 0 128 128" role="img" aria-label="Happy Paths jumping girl mark">
  <rect width="128" height="128" rx="26" fill="#ffffff"/>
  <ellipse cx="64" cy="108" rx="23" ry="6.5" fill="#cdd4ff" opacity="0.72"/>

  <g stroke="#3f3f93" stroke-width="2.6" stroke-linecap="round" stroke-linejoin="round">
    <path d="M53 18c-6 1-11 6-12 13 0 8 5 13 11 16 6 3 11 3 16 1 5-2 8-6 9-11 1-8-4-16-12-18-4-1-8-1-12-1z" fill="#5f4a8f"/>
    <path d="M44 22c-6 1-11 7-10 14 1 7 5 11 10 13" fill="none"/>
    <path d="M57 14c7-5 15-4 20 2 5 6 4 13-2 18" fill="#5f4a8f"/>

    <circle cx="62" cy="31" r="11.5" fill="#ffd7bf"/>
    <path d="M58 29h0"/>
    <path d="M66 29h0"/>
    <path d="M58 35c2 2 6 2 8 0" fill="none"/>

    <path d="M56 41h11"/>
    <path d="M44 48c3-6 8-9 18-9 10 0 15 3 18 9l4 24c1 6-3 11-9 11H49c-6 0-10-5-9-11z" fill="#f8c9dc"/>

    <path d="M42 55l-9 16c-1 3 1 6 5 7 3 1 5-1 6-3l6-13" fill="#f8c9dc"/>
    <path d="M84 55l9 16c2 3 0 6-4 7-3 1-6-1-7-3l-6-13" fill="#f8c9dc"/>

    <path d="M49 83h27l7 17c2 5-1 10-7 11H52c-6-1-9-6-7-11z" fill="#ff879f"/>
    <circle cx="57" cy="94" r="2" fill="#ffd8df" stroke="none"/>
    <circle cx="66" cy="98" r="2" fill="#ffd8df" stroke="none"/>
    <circle cx="74" cy="93" r="2" fill="#ffd8df" stroke="none"/>
    <circle cx="61" cy="104" r="2" fill="#ffd8df" stroke="none"/>
    <circle cx="72" cy="106" r="2" fill="#ffd8df" stroke="none"/>

    <path d="M58 110c0 6-3 10-6 10s-5-4-5-10 2-10 5-10 6 4 6 10z" fill="#ffd7bf"/>
    <path d="M76 110c0 6-2 10-5 10s-6-4-6-10 3-10 6-10 5 4 5 10z" fill="#ffd7bf"/>

    <path d="M44 118c2-3 7-4 12-1 4 2 6 5 4 7H44c-1-2-1-4 0-6z" fill="#7d88d8"/>
    <path d="M68 118c2-3 7-4 12-1 4 2 6 5 4 7H68c-1-2-1-4 0-6z" fill="#7d88d8"/>
  </g>
</svg>
